<svg width="165" height="157" viewBox="0 0 165 157" fill="none" xmlns="http://www.w3.org/2000/svg">
<rect width="165" height="157" fill="#F5F5F5"/>
<g id="button-top">
<path d="M164.371 78.1437C164.371 121.301 127.576 156.287 82.1856 156.287C36.7958 156.287 0 121.301 0 78.1437C0 34.9861 36.7958 0 82.1856 0C127.576 0 164.371 34.9861 164.371 78.1437Z" fill="#FA5863"/>
<path d="M31.4449 77.3545L40.8404 42.8187L64.516 49.2597L62.9266 55.102L46.2241 50.5581L44.0002 58.7327L58.4176 62.6549L56.8282 68.4973L42.4108 64.575L38.418 79.2515L31.4449 77.3545Z" fill="white"/>
<path d="M73.1577 58.189L74.824 52.064L81.4437 53.8649L79.7774 59.99L73.1577 58.189ZM65.4285 86.5998L72.2348 61.5814L78.8545 63.3823L72.0482 88.4007L65.4285 86.5998Z" fill="white"/>
<path d="M89.7769 93.2238L83.1571 91.4229L89.9635 66.4045L96.1121 68.0772L95.1443 71.6345C96.6537 70.2403 97.8973 69.3894 98.8749 69.0819C99.8683 68.7786 100.899 68.7723 101.967 69.0628C103.475 69.473 104.814 70.2844 105.985 71.497L102.366 76.7111C101.447 75.6853 100.509 75.0421 99.5508 74.7815C98.6242 74.5294 97.7685 74.5749 96.9836 74.918C96.2029 75.2454 95.4425 76.0253 94.7024 77.2577C93.9781 78.4944 93.0369 81.2408 91.879 85.4969L89.7769 93.2238Z" fill="white"/>
<path d="M123.477 93.8401L129.772 96.7418C128.266 98.9297 126.421 100.41 124.237 101.182C122.074 101.943 119.618 101.949 116.869 101.202C112.519 100.018 109.686 97.7208 108.37 94.3099C107.341 91.5841 107.298 88.4857 108.243 85.0148C109.371 80.8687 111.336 77.9203 114.14 76.1699C116.949 74.4037 120.01 73.9714 123.323 74.8729C127.046 75.8855 129.647 77.9174 131.128 80.9685C132.613 84.0038 132.618 88.0451 131.144 93.0922L114.559 88.5803C114.072 90.5563 114.19 92.2328 114.912 93.6099C115.638 94.9713 116.762 95.8592 118.286 96.2737C119.322 96.5557 120.271 96.5101 121.131 96.137C121.992 95.7639 122.774 94.9982 123.477 93.8401ZM125.674 87.2522C126.148 85.3233 126.048 83.736 125.375 82.4902C124.706 81.2287 123.697 80.4143 122.346 80.0468C120.901 79.6537 119.564 79.8551 118.336 80.651C117.107 81.4469 116.255 82.7501 115.779 84.5604L125.674 87.2522Z" fill="white"/>
</g>
</svg>
