<svg width="30" height="31" viewBox="0 0 30 31" fill="none" xmlns="http://www.w3.org/2000/svg">
<path d="M12.4099 13.1987C11.5549 13.1987 10.8799 13.9257 10.8799 14.8126C10.8799 15.6996 11.5699 16.4265 12.4099 16.4265C13.2649 16.4265 13.9399 15.6996 13.9399 14.8126C13.9549 13.9257 13.2649 13.1987 12.4099 13.1987ZM17.8849 13.1987C17.0299 13.1987 16.3549 13.9257 16.3549 14.8126C16.3549 15.6996 17.0449 16.4265 17.8849 16.4265C18.7399 16.4265 19.4149 15.6996 19.4149 14.8126C19.4149 13.9257 18.7399 13.1987 17.8849 13.1987Z" fill="white"/>
<path d="M25.175 1H5.075C3.38 1 2 2.33765 2 3.99518V23.6529C2 25.3104 3.38 26.6481 5.075 26.6481H22.085L21.29 23.9582L23.21 25.6885L25.025 27.3169L28.25 30.0795V3.99518C28.25 2.33765 26.87 1 25.175 1ZM19.385 19.9889C19.385 19.9889 18.845 19.3637 18.395 18.8112C20.36 18.2732 21.11 17.0809 21.11 17.0809C20.495 17.4735 19.91 17.7498 19.385 17.9388C18.635 18.2441 17.915 18.4477 17.21 18.564C15.77 18.8257 14.45 18.753 13.325 18.5494C12.47 18.3895 11.735 18.1569 11.12 17.9242C10.775 17.7934 10.4 17.6334 10.025 17.4299C9.98 17.4008 9.935 17.3863 9.89 17.3572C9.86 17.3427 9.845 17.3281 9.83 17.3136C9.56 17.1682 9.41 17.0664 9.41 17.0664C9.41 17.0664 10.13 18.2296 12.035 18.7821C11.585 19.3346 11.03 19.9889 11.03 19.9889C7.715 19.8871 6.455 17.7788 6.455 17.7788C6.455 13.0971 8.615 9.30218 8.615 9.30218C10.775 7.73189 12.83 7.77551 12.83 7.77551L12.98 7.94999C10.28 8.70606 9.035 9.85469 9.035 9.85469C9.035 9.85469 9.365 9.68022 9.92 9.43304C11.525 8.74967 12.8 8.56066 13.325 8.51704C13.415 8.5025 13.49 8.48796 13.58 8.48796C14.495 8.37164 15.53 8.34256 16.61 8.45888C18.035 8.61882 19.565 9.02593 21.125 9.85469C21.125 9.85469 19.94 8.76421 17.39 8.00815L17.6 7.77551C17.6 7.77551 19.655 7.73189 21.815 9.30218C21.815 9.30218 23.975 13.0971 23.975 17.7788C23.975 17.7788 22.7 19.8871 19.385 19.9889Z" fill="white"/>
</svg>
