<svg width="42" height="44" viewBox="0 0 42 44" fill="none" xmlns="http://www.w3.org/2000/svg">
<path d="M2.02246 6.10003H7.32246L9.77246 33H9.87246L12.4725 6.10003H18.4725L21.0725 33H21.1725L23.6225 6.10003H28.3725L24.8225 41.1H17.9725L15.4725 17.5H15.3725L12.8725 41.1H5.57246L2.02246 6.10003ZM22.4045 6.10003H30.8045C33.5378 6.10003 35.5878 6.83337 36.9545 8.30004C38.3212 9.7667 39.0045 11.9167 39.0045 14.75V32.45C39.0045 35.2834 38.3212 37.4334 36.9545 38.9C35.5878 40.3667 33.5378 41.1 30.8045 41.1H22.4045V6.10003ZM30.7045 36.1C31.6045 36.1 32.2878 35.8334 32.7545 35.3C33.2545 34.7667 33.5045 33.9 33.5045 32.7V14.5C33.5045 13.3 33.2545 12.4334 32.7545 11.9C32.2878 11.3667 31.6045 11.1 30.7045 11.1H27.9045V36.1H30.7045Z" fill="#313131"/>
<path d="M0.75 5H6.05L8.5 31.9H8.6L11.2 5H17.2L19.8 31.9H19.9L22.35 5H27.1L23.55 40H16.7L14.2 16.4H14.1L11.6 40H4.3L0.75 5ZM21.132 5H29.532C32.2654 5 34.3154 5.73333 35.682 7.2C37.0487 8.66666 37.732 10.8167 37.732 13.65V31.35C37.732 34.1833 37.0487 36.3333 35.682 37.8C34.3154 39.2667 32.2654 40 29.532 40H21.132V5ZM29.432 35C30.332 35 31.0154 34.7333 31.482 34.2C31.982 33.6667 32.232 32.8 32.232 31.6V13.4C32.232 12.2 31.982 11.3333 31.482 10.8C31.0154 10.2667 30.332 10 29.432 10H26.632V35H29.432Z" fill="white"/>
<rect x="20" y="5" width="4" height="27" fill="white"/>
</svg>
