<svg width="407" height="63" viewBox="0 0 407 63" fill="none" xmlns="http://www.w3.org/2000/svg">
<g filter="url(#filter0_d_229_309)">
<rect x="249.87" y="37.6641" width="34.93" height="109.058" transform="rotate(-90 249.87 37.6641)" fill="#2C2C2C"/>
<rect x="143.319" y="38.958" width="37.5174" height="99.0301" transform="rotate(-90 143.319 38.958)" fill="#2C2C2C"/>
<rect x="36.7671" y="40.2515" width="40.1048" height="99.0301" transform="rotate(-90 36.7671 40.2515)" fill="#2C2C2C"/>
<path d="M5.42859 27.3145C4.73628 27.3145 4.17505 26.7532 4.17505 26.0609V15.631C4.17505 14.9386 4.73628 14.3774 5.42859 14.3774V27.3145Z" fill="#2C2C2C"/>
<path d="M5.42871 27.3147L5.42871 14.3776L36.7673 0.146891V40.2517L5.42871 27.3147Z" fill="#E1AA3D"/>
<path d="M242.349 38.9583V1.44084H248.87C249.422 1.44084 249.87 1.88856 249.87 2.44084V37.9583C249.87 38.5105 249.422 38.9583 248.87 38.9583H242.349Z" fill="#E1AA3D"/>
<path d="M135.797 40.2515V0.146647H142.319C142.871 0.146647 143.319 0.594363 143.319 1.14665V39.2515C143.319 39.8037 142.871 40.2515 142.319 40.2515H135.797Z" fill="#E1AA3D"/>
<path d="M135.797 35.0769V32.4895L143.319 31.1958V33.7832L135.797 35.0769Z" fill="#F2C05E"/>
<path d="M135.797 11.7903V4.02806L143.318 5.32176V13.084L135.797 11.7903Z" fill="#C59639"/>
<path d="M5.42847 19.5525V16.9651L36.767 4.02805V11.7903L5.42847 19.5525Z" fill="#C59639"/>
<path d="M242.349 13.084V5.32176L249.87 6.61546V14.3777L242.349 13.084Z" fill="#C59639"/>
<path d="M242.349 33.7832V31.1958L249.87 29.9021V32.4895L242.349 33.7832Z" fill="#F2C05E"/>
<path d="M5.42847 26.021V24.7273L36.7671 32.4895V35.0769L5.42847 26.021Z" fill="#F2C05E"/>
<path d="M355.168 37.6643V2.7343H361.689C362.242 2.7343 362.689 3.18202 362.689 3.7343L362.689 36.6643C362.689 37.2166 362.242 37.6643 361.689 37.6643H355.168Z" fill="#E1AA3D"/>
<path d="M362.689 36.3706V4.02801L400.295 19.5525V20.8462V22.1399L362.689 36.3706Z" fill="#E8BD69"/>
<path d="M53.9303 49.2716C53.2758 49.2942 52.6517 48.9949 52.2595 48.4704L48.0493 42.8391H146.702C147.449 42.8391 147.932 43.6273 147.593 44.2926L147.222 45.0222C146.892 45.6708 146.236 46.0889 145.509 46.114L53.9303 49.2716Z" fill="#E1AA3D"/>
<path d="M48.0491 42.8394V38.6645C48.0491 38.1123 48.4968 37.6645 49.0491 37.6645H59.5845C60.1368 37.6645 60.5845 38.1123 60.5845 38.6645V42.8394H48.0491Z" fill="#E1AA3D"/>
<rect x="36.7673" y="11.7905" width="7.76222" height="99.0301" transform="rotate(-90 36.7673 11.7905)" fill="#1F1F1F"/>
<path d="M43.0752 35.0769C42.3607 35.0769 41.7815 34.4977 41.7815 33.7832C41.7815 33.0687 42.3607 32.4895 43.0752 32.4895H135.797V35.0769H43.0752Z" fill="#464646"/>
<path d="M143.319 33.7832V31.1958H242.349V33.7832H143.319Z" fill="#464646"/>
<path d="M249.87 32.4893V29.9019H355.167V32.4893H249.87Z" fill="#464646"/>
<path d="M355.167 32.4895V29.9021L362.689 28.6084V31.1958L355.167 32.4895Z" fill="#F2C05E"/>
<path d="M355.168 14.3777V6.61546L362.689 7.90916V15.6714L355.168 14.3777Z" fill="#C59639"/>
<path d="M362.689 15.6714V7.90915L397.788 19.5525V20.8462L362.689 15.6714Z" fill="#D9A847"/>
<path d="M362.689 31.196V28.6086L397.788 20.8464V22.1401L362.689 31.196Z" fill="#ECC579"/>
<rect x="143.319" y="13.0842" width="7.76222" height="99.0301" transform="rotate(-90 143.319 13.0842)" fill="#1F1F1F"/>
<rect x="249.87" y="14.3772" width="7.76222" height="105.298" transform="rotate(-90 249.87 14.3772)" fill="#1F1F1F"/>
<path d="M54.693 48.0028C54.4506 48.01 54.2139 47.9288 54.0269 47.7744L53.2819 47.1593C52.5643 46.5669 52.974 45.4014 53.9045 45.3883L141.777 44.1544C142.347 44.1464 142.642 44.8307 142.246 45.2398C142.13 45.3595 141.972 45.4293 141.805 45.4342L54.693 48.0028Z" fill="#F2C05E"/>
<path d="M397.788 22.7869V18.9058L401.549 19.5526L402.802 20.8463L401.549 22.14L397.788 22.7869Z" fill="#2C2C2C"/>
</g>
<defs>
<filter id="filter0_d_229_309" x="0.175049" y="0.146729" width="406.627" height="62.126" filterUnits="userSpaceOnUse" color-interpolation-filters="sRGB">
<feFlood flood-opacity="0" result="BackgroundImageFix"/>
<feColorMatrix in="SourceAlpha" type="matrix" values="0 0 0 0 0 0 0 0 0 0 0 0 0 0 0 0 0 0 127 0" result="hardAlpha"/>
<feOffset dy="9"/>
<feGaussianBlur stdDeviation="2"/>
<feComposite in2="hardAlpha" operator="out"/>
<feColorMatrix type="matrix" values="0 0 0 0 0 0 0 0 0 0 0 0 0 0 0 0 0 0 0.25 0"/>
<feBlend mode="normal" in2="BackgroundImageFix" result="effect1_dropShadow_229_309"/>
<feBlend mode="normal" in="SourceGraphic" in2="effect1_dropShadow_229_309" result="shape"/>
</filter>
</defs>
</svg>
