<svg width="30" height="30" viewBox="0 0 30 30" fill="none" xmlns="http://www.w3.org/2000/svg">
<g clip-path="url(#clip0_115_14)">
<path fill-rule="evenodd" clip-rule="evenodd" d="M30 15C30 23.2843 23.2843 30 15 30C6.71573 30 0 23.2843 0 15C0 6.71573 6.71573 0 15 0C23.2843 0 30 6.71573 30 15ZM15.5375 11.0737C14.0786 11.6805 11.1627 12.9365 6.78987 14.8417C6.07979 15.124 5.70782 15.4003 5.67396 15.6704C5.61673 16.1269 6.18839 16.3066 6.96684 16.5514C7.07273 16.5847 7.18244 16.6192 7.29492 16.6558C8.0608 16.9047 9.09103 17.196 9.62661 17.2075C10.1124 17.218 10.6547 17.0177 11.2533 16.6067C15.3389 13.8488 17.448 12.4548 17.5804 12.4247C17.6738 12.4035 17.8032 12.3769 17.891 12.4548C17.9787 12.5328 17.97 12.6804 17.9608 12.72C17.9041 12.9614 15.6602 15.0476 14.4989 16.1272C14.1369 16.4638 13.8801 16.7025 13.8276 16.757C13.71 16.8792 13.5902 16.9947 13.475 17.1058C12.7635 17.7917 12.2299 18.306 13.5045 19.146C14.117 19.5496 14.6072 19.8834 15.0962 20.2164C15.6302 20.5801 16.1629 20.9428 16.852 21.3946C17.0276 21.5097 17.1953 21.6292 17.3586 21.7457C17.9801 22.1887 18.5384 22.5868 19.2282 22.5233C19.6291 22.4864 20.0431 22.1095 20.2533 20.9854C20.7503 18.3289 21.727 12.5731 21.9528 10.2012C21.9725 9.99341 21.9477 9.72746 21.9277 9.61072C21.9077 9.49397 21.866 9.32763 21.7142 9.2045C21.5345 9.05867 21.257 9.02792 21.133 9.0301C20.5688 9.04004 19.7032 9.34102 15.5375 11.0737Z" fill="white"/>
</g>
<defs>
<clipPath id="clip0_115_14">
<rect width="30" height="30" fill="white"/>
</clipPath>
</defs>
</svg>
